<?xml version="1.0" standalone="no"?>
<!DOCTYPE svg PUBLIC "-//W3C//DTD SVG 20010904//EN"
 "http://www.w3.org/TR/2001/REC-SVG-20010904/DTD/svg10.dtd">
<svg version="1.0" xmlns="http://www.w3.org/2000/svg"
 width="512.000000pt" height="512.000000pt" viewBox="0 0 512.000000 512.000000"
 preserveAspectRatio="xMidYMid meet">
<metadata>
Created by potrace 1.14, written by Peter Selinger 2001-2017
</metadata>
<g transform="translate(0.000000,512.000000) scale(0.100000,-0.100000)"
fill="#000000" stroke="none">
<path d="M1090 5051 c-36 -9 -90 -30 -120 -46 -78 -42 -180 -147 -219 -224
-53 -104 -61 -164 -61 -468 0 -260 1 -274 20 -293 11 -11 25 -20 30 -20 6 0
10 -16 10 -35 0 -24 -5 -35 -14 -35 -27 0 -46 -42 -46 -101 0 -71 6 -88 36
-100 19 -7 24 -16 24 -44 0 -23 -5 -35 -13 -35 -8 0 -21 -8 -31 -18 -15 -17
-16 -138 -16 -1569 0 -1737 -5 -1605 73 -1745 68 -121 212 -227 352 -256 34
-8 490 -11 1440 -11 1519 -1 1463 -3 1582 57 100 51 207 164 251 264 43 100
42 67 42 1876 l0 1717 -553 553 -552 552 -1085 -1 c-983 -1 -1091 -3 -1150
-18z"/>
</g>
</svg>
